<svg width="1440" height="697" fill="none" xmlns="http://www.w3.org/2000/svg"><g clip-path="url(#clip0)"><path fill="#fff" d="M0 0h1440v697H0z"/><path d="M0 0h1440v697H0V0z" fill="#FEBD2E"/><g clip-path="url(#clip1)"><path fill-rule="evenodd" clip-rule="evenodd" d="M978.44 442.58c-3.84 1.3-5.96.44-6.62-1.96-1.44-5.2 4.89-12.8 7.81-16.76 8.49-11.49 19.93-18.42 32.04-20.9a11.542 11.542 0 01-1.97-6.44c0-6.36 5.15-11.52 11.51-11.52 6.36 0 11.52 5.16 11.52 11.52 0 2.27-.66 4.39-1.8 6.18 15.73 2.77 30.59 12.85 39.64 30.02 2.31 5.25 2.58 8.63-.42 9.76-.7.26-1.51.29-2.45.14-1.47-.23-3.33-.68-5.36-1.68-23.38-11.44-27.66 4.64-39.49 4.94-13.15.33-14.8-18.1-44.41-3.3zm-12.19 9.12c-.45-1.55-.35-2.53.67-2.54 4.46 1.73 7.33 2.39 9.72 2.34l14.95 56.37h-.03c-4-.92-7.24-3.14-9.52-7l-15.79-49.17zm15.37-1.34c2.58-1.04 5.58-2.66 10.61-4.32 1.54-.51 3.01-.72 4.44-.72l8.33 62.56h-8.12l-15.26-57.52zm20.46-4.22c7.55 1.93 10.26 5.61 15.84 7.96.55.23 1.1.4 1.65.52v53.26h-9.27l-8.22-61.74zm22.78 8.48l.18-.03c6.21-.98 10.84-5.25 16.82-7.37l-8.07 60.66h-8.92v-53.26h-.01zm22.43-8.56c2.63-.18 5.57.17 8.98 1.34 2.22.77 4.25 1.72 6.31 2.46l-15.39 58.02h-8.12l8.22-61.82zm20.28 4.92c1.66.1 3.43-.11 5.4-.8.98-.34 2.01-.86 3.15-1.64 1.43.09 2.4.59 1.76 2.52l-15.47 48.58c-2.23 4.29-5.34 7.12-9.48 8.24h-.45l15.09-56.9z" fill="#333"/></g><g clip-path="url(#clip2)"><path fill-rule="evenodd" clip-rule="evenodd" d="M947.25 248.58c1.07 7-1.51 15.92-13.64 22.21v35.77c-.67 4.58-2.81 5.75-8.75 5.77H860.8c-6.76-.12-7.7-1.55-7.93-5.77v-36.33c-11.12-5.14-13.54-13.13-13.26-20.07.94-23.23 26.59-36.88 54-36.76 26.79.11 50.16 12.21 53.68 35.18h-.04zM911.23 260a10.749 10.749 0 017.594 18.359 10.754 10.754 0 01-11.722 2.317 10.75 10.75 0 01-6.622-9.946 10.731 10.731 0 013.152-7.591A10.728 10.728 0 01911.23 260zm-6.78 29.41a3.882 3.882 0 012.743 6.624 3.885 3.885 0 01-4.228.841 3.88 3.88 0 011.485-7.465zm-26-14.78a7.005 7.005 0 016.467 4.321 7.002 7.002 0 01-9.146 9.146 6.996 6.996 0 01-4.321-6.467 7 7 0 017-7zm.07-31.87c1.309 0 2.589.388 3.677 1.116a6.615 6.615 0 012.815 6.796 6.621 6.621 0 01-9.026 4.824 6.624 6.624 0 01-4.086-6.116 6.618 6.618 0 016.62-6.62zm-20.21-.52a3.272 3.272 0 012.254 5.6A3.269 3.269 0 01855 245.5a3.26 3.26 0 013.26-3.26h.05zm66 2a5.494 5.494 0 015.072 3.389 5.493 5.493 0 01-4.001 7.486 5.485 5.485 0 01-5.636-2.335 5.491 5.491 0 014.565-8.54zm-25.55-16a4.719 4.719 0 013.272 8.082A4.719 4.719 0 01894 232.93a4.718 4.718 0 014.72-4.72l.04.03zm22.73 87.54c-1.693.356-3.421.52-5.15.49h-64.42c-3.94-.1-6.35-.69-8-2-2-1.61-2.48-3.67-2.64-6.64V273a24.782 24.782 0 01-10.52-9.79A22.987 22.987 0 01828 250.9c.52-12.15 7.1-21.9 17.07-28.65 8.73-5.94 20.09-9.63 32.16-10.7a82.491 82.491 0 0116.36-1.55c14.6.06 28.29 3.56 38.61 10.33 9.8 6.4 16.58 15.67 18.42 27.74a21.717 21.717 0 01-3 14.85 29.4 29.4 0 01-10.62 9.87v33.77a3.553 3.553 0 01-.08.72c-.5 3.19-1.65 5.3-3.9 6.74-2 1.26-4.56 1.7-8.17 1.71l-3.36.05z" fill="#333"/></g><path fill-rule="evenodd" clip-rule="evenodd" d="M-142.353 807.477c2.817-44.612 46.846-72.38 71.842-109.499 21.996-32.666 29.363-79.326 65.673-94.715 36.126-15.312 74.171 15.491 113.266 18.875 45.941 3.977 101.284-28.809 134.937 2.611 33.225 31.02 12.288 87.175 9.79 132.512-2.026 36.755-1.617 75.202-22.895 105.294-20.148 28.494-58.868 32.75-88.166 51.773-36.187 23.497-60.302 69.034-103.326 72.562-46.117 3.782-91.299-21.403-124.114-53.909-33.49-33.175-59.974-78.504-57.007-125.504zM1600.96 954.514c-49.18 13.837-96.57-24.168-146.48-37.633-43.92-11.85-97.11-2.254-128.1-36.447-30.84-34.021 7.91-123.048-3.97-167.442-13.95-52.169-65.86-53.68-45.37-102.722 20.23-48.416 43.49-17.467 93.32-31.93 40.4-11.725 15.67-58.6 124.89-52.602 38.69 11.395 75.78 49.462 107.91 74.545 39.67 30.979 98.3 40.276 119.18 86.378 22.38 49.415 13.19 108.801-8.81 157.331-22.44 49.528-60.76 95.944-112.57 110.522z" fill="#333"/><path clip-rule="evenodd" d="M929.119-198.595c26.823 18.36 39.522 51.851 45.442 82.658 5.716 29.748-.298 59.133-13.3 84.614-12.407 24.315-36.177 37.895-57.686 54.502-26.707 20.622-47.314 57.654-82.96 54.095-35.529-3.548-56.619-44.14-82.667-70.633-24.519-24.938-56.027-46.35-64.597-79.144-8.621-32.986.083-68.181 19.521-93.336 17.601-22.778 50.158-25.702 78.589-33.631 22.753-6.345 45.49-7.874 69.754-7.74 29.897.166 62.044-9.086 87.904 8.615z" stroke="#fff" stroke-width="6"/><path clip-rule="evenodd" d="M1645.85 18.564c1.37 33.106-17.04 64.213-37.3 88.17-19.57 23.132-45.62 36.558-72.71 41.906-25.85 5.104-50.01-5.658-75.19-12.708-31.26-8.753-71.62-2.364-89.46-33.391-17.78-30.924 1.24-73.233 6.57-110.774 5.02-35.338 3.29-74.13 23.55-101.465 20.37-27.496 52.45-42.364 83-42.307 27.67.052 48.71 24.547 71.21 42.593 18.01 14.442 32.31 31.868 46.21 51.564 17.13 24.269 42.8 44.495 44.12 76.412z" stroke="#333" stroke-width="6"/><path d="M109.63 342H65.3v-91h40.56c9.273 0 16.553 2.08 21.84 6.24 5.287 4.16 7.93 9.88 7.93 17.16 0 5.287-1.473 9.793-4.42 13.52-2.947 3.64-7.15 6.24-12.61 7.8v.65c6.327 1.387 11.267 4.03 14.82 7.93 3.553 3.9 5.33 8.667 5.33 14.3 0 7.107-2.643 12.783-7.93 17.03-5.287 4.247-12.35 6.37-21.19 6.37zM80.9 265.69v29.51h21.06c5.547 0 9.967-1.343 13.26-4.03 3.293-2.687 4.94-6.283 4.94-10.79 0-4.507-1.647-8.06-4.94-10.66-3.293-2.687-7.713-4.03-13.26-4.03H80.9zm0 32.11v29.51h23.4c5.547 0 9.967-1.343 13.26-4.03 3.293-2.687 4.94-6.283 4.94-10.79 0-4.507-1.69-8.06-5.07-10.66-3.293-2.687-7.67-4.03-13.13-4.03H80.9zm83.539-29.25h-1.3l-8.06-23.4h17.55l-8.19 23.4zm6.11 73.45h-13.65v-65h13.65v65zm49.421 1.69c-9.447 0-17.29-2.167-23.53-6.5-6.154-4.333-9.62-10.487-10.4-18.46h14.17c.693 4.507 2.816 7.93 6.37 10.27 3.553 2.253 7.843 3.38 12.87 3.38 4.16 0 7.886-.867 11.18-2.6 3.38-1.82 5.07-4.507 5.07-8.06 0-1.907-.434-3.51-1.3-4.81-.867-1.3-2.384-2.34-4.55-3.12-2.167-.867-4.29-1.517-6.37-1.95-2.08-.433-5.07-.953-8.97-1.56-8.927-1.127-15.514-2.817-19.76-5.07-4.247-2.253-6.37-5.893-6.37-10.92 0-6.067 2.686-10.747 8.06-14.04 5.373-3.293 12.133-4.94 20.28-4.94 9.186 0 16.64 2.167 22.36 6.5 5.72 4.333 8.883 10.487 9.49 18.46h-13.52c-.434-4.507-2.297-7.887-5.59-10.14-3.294-2.253-7.28-3.38-11.96-3.38-4.074 0-7.67.953-10.79 2.86-3.12 1.82-4.68 4.55-4.68 8.19 0 3.293 1.646 5.72 4.94 7.28 3.293 1.56 8.493 2.817 15.6 3.77 9.013 1.213 15.643 3.033 19.89 5.46 4.246 2.34 6.37 6.023 6.37 11.05 0 5.893-2.817 10.443-8.45 13.65-5.547 3.12-12.35 4.68-20.41 4.68zm74.875-.39c-16.033 0-24.05-7.15-24.05-21.45v-32.5h-15.34V277h10.66c4.074 0 6.11-2.08 6.11-6.24v-9.36h12.35l-.13 15.6h26v12.35h-26v29.25c0 4.16 1.04 7.193 3.12 9.1 2.167 1.907 5.547 2.86 10.14 2.86 3.554 0 7.8-.52 12.74-1.56v12.35c-5.72 1.3-10.92 1.95-15.6 1.95zm46.202-1.3h-13.65v-65h13.65v21.19c1.387-6.413 4.074-11.743 8.06-15.99 4.074-4.333 9.1-6.5 15.08-6.5 13.347 0 20.02 8.103 20.02 24.31v5.2h-13.65v-2.6c0-4.507-1.126-7.973-3.38-10.4-2.253-2.427-5.416-3.64-9.49-3.64-4.766 0-8.753 1.907-11.96 5.72-3.12 3.727-4.68 8.407-4.68 14.04V342zm84.784 1.3c-10.054 0-18.417-3.207-25.09-9.62-6.674-6.5-10.01-14.56-10.01-24.18 0-9.707 3.336-17.767 10.01-24.18 6.673-6.413 15.036-9.62 25.09-9.62 10.053 0 18.416 3.207 25.09 9.62 6.673 6.413 10.01 14.473 10.01 24.18 0 9.62-3.38 17.68-10.14 24.18-6.674 6.413-14.994 9.62-24.96 9.62zm-15.08-18.72c4.073 3.987 9.1 5.98 15.08 5.98s10.963-1.993 14.95-5.98c4.073-4.073 6.11-9.1 6.11-15.08s-2.037-11.007-6.11-15.08c-3.987-4.073-8.97-6.11-14.95-6.11-5.98 0-11.007 2.037-15.08 6.11-4.074 4.073-6.11 9.1-6.11 15.08s2.036 11.007 6.11 15.08zM97.8 463.95c-12.307 0-22.273-3.077-29.9-9.23-7.54-6.153-11.7-14.43-12.48-24.83h15.47c.867 6.587 3.553 11.787 8.06 15.6 4.507 3.727 10.487 5.59 17.94 5.59 7.107 0 12.61-1.387 16.51-4.16 3.987-2.773 5.98-6.673 5.98-11.7 0-5.373-2.34-9.36-7.02-11.96-4.68-2.687-11.917-4.983-21.71-6.89-10.313-2.08-18.2-4.81-23.66-8.19-5.373-3.38-8.06-8.363-8.06-14.95 0-7.28 3.25-13.13 9.75-17.55s14.907-6.63 25.22-6.63c11.96 0 21.537 2.947 28.73 8.84 7.193 5.893 11.18 14.04 11.96 24.44h-16.12c-.693-6.413-3.163-11.397-7.41-14.95-4.247-3.553-9.793-5.33-16.64-5.33-6.587 0-11.83 1.473-15.73 4.42-3.9 2.86-5.85 6.76-5.85 11.7 0 2.253.52 4.247 1.56 5.98 1.04 1.733 2.297 3.207 3.77 4.42 1.56 1.127 3.943 2.253 7.15 3.38a122.253 122.253 0 009.23 2.86c2.947.693 7.02 1.603 12.22 2.73 4.247.867 7.8 1.82 10.66 2.86a42.198 42.198 0 018.58 3.9c2.773 1.56 4.853 3.64 6.24 6.24 1.387 2.6 2.08 5.633 2.08 9.1 0 7.367-3.337 13.26-10.01 17.68-6.587 4.42-15.427 6.63-26.52 6.63zm82.618-.65c-9.88 0-18.113-3.163-24.7-9.49s-9.88-14.3-9.88-23.92c0-9.88 3.293-18.027 9.88-24.44 6.673-6.5 14.95-9.75 24.83-9.75 9.793 0 17.94 3.207 24.44 9.62 6.5 6.327 9.75 14.387 9.75 24.18v1.3h-55.38c.347 5.807 2.513 10.66 6.5 14.56 3.987 3.813 8.883 5.72 14.69 5.72 4.073 0 7.67-.91 10.79-2.73 3.207-1.82 5.417-4.16 6.63-7.02h14.69c-1.04 5.893-4.55 11.05-10.53 15.47-5.893 4.333-13.13 6.5-21.71 6.5zm21.45-35.1c-.26-5.807-2.427-10.617-6.5-14.43-3.987-3.9-8.883-5.85-14.69-5.85s-10.747 1.95-14.82 5.85c-3.987 3.813-6.153 8.623-6.5 14.43h42.51zm58.657 35.1c-9.966 0-18.243-3.207-24.83-9.62-6.5-6.413-9.75-14.473-9.75-24.18 0-9.707 3.25-17.767 9.75-24.18 6.587-6.413 14.864-9.62 24.83-9.62 8.754 0 16.12 2.513 22.1 7.54 5.98 4.94 9.49 11.31 10.53 19.11h-13.52c-1.126-4.333-3.38-7.8-6.76-10.4-3.38-2.6-7.496-3.9-12.35-3.9-6.066 0-11.093 2.037-15.08 6.11-3.9 4.073-5.85 9.187-5.85 15.34 0 6.067 1.994 11.137 5.98 15.21 3.987 4.073 8.97 6.11 14.95 6.11 4.854 0 8.97-1.3 12.35-3.9 3.38-2.6 5.634-6.067 6.76-10.4h13.52c-1.04 7.887-4.55 14.343-10.53 19.37-5.98 4.94-13.346 7.41-22.1 7.41zm63.13-1.3h-13.65v-65h13.65v21.19c1.386-6.413 4.073-11.743 8.06-15.99 4.073-4.333 9.1-6.5 15.08-6.5 13.346 0 20.02 8.103 20.02 24.31v5.2h-13.65v-2.6c0-4.507-1.127-7.973-3.38-10.4-2.254-2.427-5.417-3.64-9.49-3.64-4.767 0-8.754 1.907-11.96 5.72-3.12 3.727-4.68 8.407-4.68 14.04V462zm84.263 1.3c-9.88 0-18.113-3.163-24.7-9.49s-9.88-14.3-9.88-23.92c0-9.88 3.293-18.027 9.88-24.44 6.673-6.5 14.95-9.75 24.83-9.75 9.793 0 17.94 3.207 24.44 9.62 6.5 6.327 9.75 14.387 9.75 24.18v1.3h-55.38c.347 5.807 2.513 10.66 6.5 14.56 3.987 3.813 8.883 5.72 14.69 5.72 4.073 0 7.67-.91 10.79-2.73 3.207-1.82 5.417-4.16 6.63-7.02h14.69c-1.04 5.893-4.55 11.05-10.53 15.47-5.893 4.333-13.13 6.5-21.71 6.5zm21.45-35.1c-.26-5.807-2.427-10.617-6.5-14.43-3.987-3.9-8.883-5.85-14.69-5.85s-10.747 1.95-14.82 5.85c-3.987 3.813-6.153 8.623-6.5 14.43h42.51zm58.573 35.1c-16.033 0-24.05-7.15-24.05-21.45v-32.5h-15.34V397h10.66c4.074 0 6.11-2.08 6.11-6.24v-9.36h12.35l-.13 15.6h26v12.35h-26v29.25c0 4.16 1.04 7.193 3.12 9.1 2.167 1.907 5.547 2.86 10.14 2.86 3.554 0 7.8-.52 12.74-1.56v12.35c-5.72 1.3-10.92 1.95-15.6 1.95zm56.648.39c-9.447 0-17.29-2.167-23.53-6.5-6.154-4.333-9.62-10.487-10.4-18.46h14.17c.693 4.507 2.816 7.93 6.37 10.27 3.553 2.253 7.843 3.38 12.87 3.38 4.16 0 7.886-.867 11.18-2.6 3.38-1.82 5.07-4.507 5.07-8.06 0-1.907-.434-3.51-1.3-4.81-.867-1.3-2.384-2.34-4.55-3.12-2.167-.867-4.29-1.517-6.37-1.95-2.08-.433-5.07-.953-8.97-1.56-8.927-1.127-15.514-2.817-19.76-5.07-4.247-2.253-6.37-5.893-6.37-10.92 0-6.067 2.686-10.747 8.06-14.04 5.373-3.293 12.133-4.94 20.28-4.94 9.186 0 16.64 2.167 22.36 6.5 5.72 4.333 8.883 10.487 9.49 18.46h-13.52c-.434-4.507-2.297-7.887-5.59-10.14-3.294-2.253-7.28-3.38-11.96-3.38-4.074 0-7.67.953-10.79 2.86-3.12 1.82-4.68 4.55-4.68 8.19 0 3.293 1.646 5.72 4.94 7.28 3.293 1.56 8.493 2.817 15.6 3.77 9.013 1.213 15.643 3.033 19.89 5.46 4.246 2.34 6.37 6.023 6.37 11.05 0 5.893-2.817 10.443-8.45 13.65-5.547 3.12-12.35 4.68-20.41 4.68z" fill="#333"/><g clip-path="url(#clip3)"><path d="M801.77 464.38c2.09 3.1 4.37 5.11 6.86 5.78 2.45.66 5.32.06 8.7-2.01 1.36-.84 3.14-.41 3.97.95.28.46.42.96.43 1.47.13 1.4.21 2.82.24 4.26.03 1.46.02 2.91-.05 4.35 0 .13-.01.26-.03.38-.91 16.72-8.47 31.51-20 41.93-11.55 10.44-27.06 16.49-43.82 15.69v.01c-.13 0-.26-.01-.38-.03-16.72-.91-31.51-8.47-41.93-20-10.45-11.55-16.49-27.06-15.69-43.82 0-.13.01-.26.03-.38.9-16.74 8.71-31.61 20.47-42.09 11.77-10.5 27.52-16.6 44.28-15.8a2.881 2.881 0 012.876 2.618c.044.475-.03.953-.216 1.392-1.17 3.81-1.25 7.34-.27 10.14.89 2.54 2.7 4.51 5.41 5.52 1.44.54 2.2 2.1 1.74 3.55h.01c-1.83 5.89-1.87 11.08-.52 15.26.82 2.53 2.14 4.69 3.88 6.4 1.74 1.72 3.9 3 6.39 3.78 4.04 1.26 8.94 1.18 14.31-.55 1.27-.4 2.62.12 3.31 1.2zm-42.49 8.48c2.77 0 5.01 2.24 5.01 5.01 0 2.77-2.24 5.01-5.01 5.01-2.77 0-5.01-2.24-5.01-5.01 0-2.77 2.25-5.01 5.01-5.01zm-21.72 20.63a6.11 6.11 0 016.11 6.11c0 3.38-2.73 6.11-6.11 6.11-3.38 0-6.11-2.73-6.11-6.11 0-3.38 2.73-6.11 6.11-6.11zm13.16-46.74c2.65 0 4.79 2.14 4.79 4.79s-2.14 4.79-4.79 4.79-4.79-2.14-4.79-4.79a4.787 4.787 0 014.79-4.79zm68.58.65c1.98 0 3.58 1.6 3.58 3.58s-1.6 3.58-3.58 3.58-3.58-1.6-3.58-3.58c-.01-1.97 1.6-3.58 3.58-3.58zm-25.68-9.49c2.98 0 5.39 2.41 5.39 5.39 0 2.98-2.41 5.39-5.39 5.39-2.98 0-5.39-2.41-5.39-5.39 0-2.97 2.41-5.39 5.39-5.39zm4.17-22.32c3.19 0 5.78 2.59 5.78 5.78 0 3.19-2.59 5.78-5.78 5.78-3.19 0-5.78-2.59-5.78-5.78.01-3.2 2.59-5.78 5.78-5.78zm-21.06 80.04a8.03 8.03 0 11-8.03 8.03c0-4.44 3.59-8.03 8.03-8.03zm-44.82-33.85c4.8 0 8.69 3.89 8.69 8.69a8.69 8.69 0 11-8.69-8.69zm75.22 13.96c-3.39-.91-6.35-3.14-8.95-6.48-5.78 1.52-11.16 1.41-15.76-.02-3.37-1.05-6.32-2.81-8.71-5.18-2.39-2.37-4.21-5.32-5.32-8.75-1.51-4.66-1.69-10.2-.18-16.32-3.1-1.8-5.25-4.53-6.42-7.88-1.06-3.05-1.28-6.59-.61-10.35-13.91.19-26.88 5.6-36.77 14.42-10.67 9.51-17.75 22.97-18.57 38.11v.05l-.01.13c-.76 15.25 4.72 29.35 14.19 39.83 9.44 10.44 22.84 17.29 38 18.1h.05l.13.01c15.24.77 29.35-4.71 39.83-14.19 10.44-9.44 17.29-22.84 18.1-38v-.05l.01-.13c.07-1.34.09-2.64.06-3.91-3.22 1.21-6.24 1.38-9.07.61z" fill="#333"/></g><circle cx="1232" cy="196" r="6" fill="#fff"/><circle cx="1257" cy="196" r="6" fill="#fff"/><circle cx="1282" cy="196" r="6" fill="#fff"/><circle cx="1307" cy="196" r="6" fill="#fff"/><circle cx="1332" cy="196" r="6" fill="#fff"/><circle cx="1357" cy="196" r="6" fill="#fff"/><circle cx="1232" cy="219" r="6" fill="#fff"/><circle cx="1257" cy="219" r="6" fill="#fff"/><circle cx="1282" cy="219" r="6" fill="#fff"/><circle cx="1307" cy="219" r="6" fill="#fff"/><circle cx="1332" cy="219" r="6" fill="#fff"/><circle cx="1357" cy="219" r="6" fill="#fff"/><circle cx="1232" cy="246" r="6" fill="#fff"/><circle cx="1257" cy="246" r="6" fill="#fff"/><circle cx="1282" cy="246" r="6" fill="#fff"/><circle cx="1307" cy="246" r="6" fill="#fff"/><circle cx="1332" cy="246" r="6" fill="#fff"/><circle cx="1357" cy="246" r="6" fill="#fff"/><circle cx="1232" cy="273" r="6" fill="#fff"/><circle cx="1257" cy="273" r="6" fill="#fff"/><circle cx="1282" cy="273" r="6" fill="#fff"/><circle cx="1307" cy="273" r="6" fill="#fff"/><circle cx="1332" cy="273" r="6" fill="#fff"/><circle cx="1357" cy="273" r="6" fill="#fff"/><circle cx="1232" cy="300" r="6" fill="#fff"/><circle cx="1257" cy="300" r="6" fill="#fff"/><circle cx="1282" cy="300" r="6" fill="#fff"/><circle cx="1307" cy="300" r="6" fill="#fff"/><circle cx="1332" cy="300" r="6" fill="#fff"/><circle cx="1357" cy="300" r="6" fill="#fff"/><circle cx="1232" cy="327" r="6" fill="#fff"/><circle cx="1257" cy="327" r="6" fill="#fff"/><circle cx="1282" cy="327" r="6" fill="#fff"/><circle cx="1307" cy="327" r="6" fill="#fff"/><circle cx="1332" cy="327" r="6" fill="#fff"/><circle cx="1357" cy="327" r="6" fill="#fff"/></g><defs><clipPath id="clip0"><path fill="#fff" d="M0 0h1440v697H0z"/></clipPath><clipPath id="clip1"><path fill="#fff" transform="translate(966 385)" d="M0 0h112.08v122.88H0z"/></clipPath><clipPath id="clip2"><path fill="#fff" transform="translate(828 210)" d="M0 0h122.88v106.25H0z"/></clipPath><clipPath id="clip3"><path fill="#fff" transform="translate(700 415)" d="M0 0h122.88v122.25H0z"/></clipPath></defs></svg>