<svg width="682" height="95" fill="none" xmlns="http://www.w3.org/2000/svg"><path d="M31.064 61.08c2.928.624 5.28 2.088 7.056 4.392 1.776 2.256 2.664 4.848 2.664 7.776 0 4.224-1.488 7.584-4.464 10.08C33.392 85.776 29.288 87 24.008 87H.464V36.456h22.752c5.136 0 9.144 1.176 12.024 3.528 2.928 2.352 4.392 5.544 4.392 9.576 0 2.976-.792 5.448-2.376 7.416-1.536 1.968-3.6 3.336-6.192 4.104zm-18.288-4.176h8.064c2.016 0 3.552-.432 4.608-1.296 1.104-.912 1.656-2.232 1.656-3.96 0-1.728-.552-3.048-1.656-3.96-1.056-.912-2.592-1.368-4.608-1.368h-8.064v10.584zm9.072 20.16c2.064 0 3.648-.456 4.752-1.368 1.152-.96 1.728-2.328 1.728-4.104 0-1.776-.6-3.168-1.8-4.176-1.152-1.008-2.76-1.512-4.824-1.512h-8.928v11.16h9.072zm38.389-40.608V87H47.925V36.456h12.312zm27.21 51.048c-3.696 0-7.008-.6-9.936-1.8-2.928-1.2-5.28-2.976-7.056-5.328-1.728-2.352-2.64-5.184-2.736-8.496h13.104c.192 1.872.84 3.312 1.944 4.32 1.104.96 2.544 1.44 4.32 1.44 1.824 0 3.264-.408 4.32-1.224 1.056-.864 1.584-2.04 1.584-3.528 0-1.248-.432-2.28-1.296-3.096-.816-.816-1.848-1.488-3.096-2.016-1.2-.528-2.928-1.128-5.184-1.8-3.264-1.008-5.928-2.016-7.992-3.024s-3.84-2.496-5.328-4.464c-1.488-1.968-2.232-4.536-2.232-7.704 0-4.704 1.704-8.376 5.112-11.016 3.408-2.688 7.848-4.032 13.32-4.032 5.568 0 10.056 1.344 13.464 4.032 3.408 2.64 5.232 6.336 5.472 11.088h-13.32c-.096-1.632-.696-2.904-1.8-3.816-1.104-.96-2.52-1.44-4.248-1.44-1.488 0-2.688.408-3.6 1.224-.912.768-1.368 1.896-1.368 3.384 0 1.632.768 2.904 2.304 3.816 1.536.912 3.936 1.896 7.2 2.952 3.264 1.104 5.904 2.16 7.92 3.168 2.064 1.008 3.84 2.472 5.328 4.392 1.488 1.92 2.232 4.392 2.232 7.416 0 2.88-.744 5.496-2.232 7.848-1.44 2.352-3.552 4.224-6.336 5.616-2.784 1.392-6.072 2.088-9.864 2.088zm62.369-51.048v9.864h-13.392V87h-12.312V46.32H110.72v-9.864h39.096zM181.771 87l-10.512-19.08h-2.952V87h-12.312V36.456h20.664c3.984 0 7.368.696 10.152 2.088 2.832 1.392 4.944 3.312 6.336 5.76 1.392 2.4 2.088 5.088 2.088 8.064 0 3.36-.96 6.36-2.88 9-1.872 2.64-4.656 4.512-8.352 5.616L195.667 87h-13.896zm-13.464-27.792h7.632c2.256 0 3.936-.552 5.04-1.656 1.152-1.104 1.728-2.664 1.728-4.68 0-1.92-.576-3.432-1.728-4.536-1.104-1.104-2.784-1.656-5.04-1.656h-7.632v12.528zm58.561 28.296c-4.752 0-9.12-1.104-13.104-3.312-3.936-2.208-7.08-5.28-9.432-9.216-2.304-3.984-3.456-8.448-3.456-13.392 0-4.944 1.152-9.384 3.456-13.32 2.352-3.936 5.496-7.008 9.432-9.216 3.984-2.208 8.352-3.312 13.104-3.312 4.752 0 9.096 1.104 13.032 3.312 3.984 2.208 7.104 5.28 9.36 9.216 2.304 3.936 3.456 8.376 3.456 13.32 0 4.944-1.152 9.408-3.456 13.392-2.304 3.936-5.424 7.008-9.36 9.216-3.936 2.208-8.28 3.312-13.032 3.312zm0-11.232c4.032 0 7.248-1.344 9.648-4.032 2.448-2.688 3.672-6.24 3.672-10.656 0-4.464-1.224-8.016-3.672-10.656-2.4-2.688-5.616-4.032-9.648-4.032-4.08 0-7.344 1.32-9.792 3.96-2.4 2.64-3.6 6.216-3.6 10.728 0 4.464 1.2 8.04 3.6 10.728 2.448 2.64 5.712 3.96 9.792 3.96z" fill="#EF4239"/><path d="M305.423 61.08c2.928.624 5.28 2.088 7.056 4.392 1.776 2.256 2.664 4.848 2.664 7.776 0 4.224-1.488 7.584-4.464 10.08-2.928 2.448-7.032 3.672-12.312 3.672h-23.544V36.456h22.752c5.136 0 9.144 1.176 12.024 3.528 2.928 2.352 4.392 5.544 4.392 9.576 0 2.976-.792 5.448-2.376 7.416-1.536 1.968-3.6 3.336-6.192 4.104zm-18.288-4.176h8.064c2.016 0 3.552-.432 4.608-1.296 1.104-.912 1.656-2.232 1.656-3.96 0-1.728-.552-3.048-1.656-3.96-1.056-.912-2.592-1.368-4.608-1.368h-8.064v10.584zm9.072 20.16c2.064 0 3.648-.456 4.752-1.368 1.152-.96 1.728-2.328 1.728-4.104 0-1.776-.6-3.168-1.8-4.176-1.152-1.008-2.76-1.512-4.824-1.512h-8.928v11.16h9.072zm57.541 1.008h-18.864L331.86 87h-12.888l18.288-50.544h14.256L369.804 87h-13.032l-3.024-8.928zm-3.168-9.504l-6.264-18.504-6.192 18.504h12.456zm43.078 18.936c-3.696 0-7.008-.6-9.936-1.8-2.928-1.2-5.28-2.976-7.056-5.328-1.728-2.352-2.64-5.184-2.736-8.496h13.104c.192 1.872.84 3.312 1.944 4.32 1.104.96 2.544 1.44 4.32 1.44 1.824 0 3.264-.408 4.32-1.224 1.056-.864 1.584-2.04 1.584-3.528 0-1.248-.432-2.28-1.296-3.096-.816-.816-1.848-1.488-3.096-2.016-1.2-.528-2.928-1.128-5.184-1.8-3.264-1.008-5.928-2.016-7.992-3.024s-3.84-2.496-5.328-4.464c-1.488-1.968-2.232-4.536-2.232-7.704 0-4.704 1.704-8.376 5.112-11.016 3.408-2.688 7.848-4.032 13.32-4.032 5.568 0 10.056 1.344 13.464 4.032 3.408 2.64 5.232 6.336 5.472 11.088h-13.32c-.096-1.632-.696-2.904-1.8-3.816-1.104-.96-2.52-1.44-4.248-1.44-1.488 0-2.688.408-3.6 1.224-.912.768-1.368 1.896-1.368 3.384 0 1.632.768 2.904 2.304 3.816 1.536.912 3.936 1.896 7.2 2.952 3.264 1.104 5.904 2.16 7.92 3.168 2.064 1.008 3.84 2.472 5.328 4.392 1.488 1.92 2.232 4.392 2.232 7.416 0 2.88-.744 5.496-2.232 7.848-1.44 2.352-3.552 4.224-6.336 5.616-2.784 1.392-6.072 2.088-9.864 2.088zM448.971 87l-16.992-22.32V87h-12.312V36.456h12.312v22.176l16.848-22.176h14.472l-19.584 24.768L464.019 87h-15.048zm33.211-40.68v10.224h16.488v9.504h-16.488v11.088h18.648V87h-30.96V36.456h30.96v9.864h-18.648zm63.001-9.864v9.864h-13.392V87h-12.312V46.32h-13.392v-9.864h39.096z" fill="#A87B61"/><g clip-path="url(#clip0)"><path fill-rule="evenodd" clip-rule="evenodd" d="M571.04 27.72h9.43l23.09-25.86c2.05-2.3 5.61-2.5 7.9-.45 2.3 2.05 2.5 5.61.45 7.91l-16.42 18.4h50.32l-16.42-18.4c-2.05-2.3-1.85-5.86.45-7.91 2.3-2.05 5.85-1.85 7.91.45l23.08 25.86h17.61c1.9 0 3.45 1.55 3.45 3.45v9.73c0 1.9-1.55 3.45-3.45 3.45h-7.33l-3.77 47.53c-.1 1.31-1.08 2.39-2.39 2.39h-89.01c-1.31 0-2.29-1.08-2.39-2.39l-3.77-47.53h-7.33c-1.9 0-3.45-1.55-3.45-3.45v-9.73c0-1.9 1.55-3.45 3.45-3.45h8.59zm65.63 18.5h10.91v31.53h-10.91V46.22zm-21.22 0h10.9v31.53h-10.9V46.22zm-21.22 0h10.91v31.53h-10.91V46.22z" fill="#D67943"/></g><defs><clipPath id="clip0"><path fill="#fff" transform="translate(559)" d="M0 0h122.88v94.27H0z"/></clipPath></defs></svg>